<!--@author: Yu-Ning,Chang-->
<!--svg exported from Adobe Illustrator-->

<svg id="img_1" data-name="img 1" xmlns="http://www.w3.org/2000/svg" viewBox="0 0 148.4 88.78">
  <defs>
    <style>
      .cls-1 {
        fill: #fff;
      }
    </style>
  </defs>
  <title>icons</title>
  <g>
    <path class="cls-1" d="M433.86,650.89a424.36,424.36,0,0,0,1.75,47.25c0.61,6.43.89,13.22,2.32,19.52,1,4.5,3.68,6.82,8.35,7.07,14.74,0.77,29.9-.63,44.65-1.06q22.64-.65,45.26-1.52,11.81-.45,23.61-1l9.84-.43c2.9-.13,6.88.39,9.56-1,4.48-2.37,2.66-9.48,2.45-13.46Q581,694.58,579.7,683q-1.14-10-2.76-20c-1-6.25-1.3-14.48-4.13-20.24-2-4.15-6-4.41-10.15-4.69-7.78-.54-15.57-0.9-23.36-1.14a654.56,654.56,0,0,0-103,5.06c-3.15.4-3.19,5.41,0,5A657.13,657.13,0,0,1,514,641.65q19.49-.17,39,0.84c3.24,0.17,6.49.33,9.73,0.58,0.63,0,3,0,3.77.36,2.39,1.26,2.41,3.37,2.87,5.56,1.33,6.36,2.45,12.77,3.43,19.19a388.63,388.63,0,0,1,4,40c0.07,1.42.53,3.47,0.21,4.86-0.56,2.42-1.13,2-3.38,2.5-2.74.63-6,.28-8.85,0.4q-10.33.46-20.66,0.87-39.35,1.57-78.72,2.5l-10.83.24c-3.06.07-9.52,1.5-11.48-2-1.54-2.78-1.14-7.48-1.5-10.58q-0.62-5.39-1.11-10.79a423.85,423.85,0,0,1-1.57-45.29c0.06-3.22-4.94-3.22-5,0h0Z" transform="translate(-433.79 -636.17)"/>
    <path class="cls-1" d="M458.65,647.08q5.83,35.72,9.67,71.72c0.34,3.17,5.34,3.2,5,0q-3.91-36.66-9.85-73c-0.52-3.17-5.34-1.82-4.82,1.33h0Z" transform="translate(-433.79 -636.17)"/>
    <path class="cls-1" d="M488.27,645.47l11.13,74c0.48,3.17,5.3,1.82,4.82-1.33l-11.13-74c-0.48-3.17-5.3-1.82-4.82,1.33h0Z" transform="translate(-433.79 -636.17)"/>
    <path class="cls-1" d="M514.67,641.13l4.65,43.38c1.24,11.52.36,25.45,8.12,34.84,2.05,2.48,5.57-1.07,3.54-3.54-4.46-5.4-4.6-12.11-5.31-18.77l-2-18.32-4-37.6c-0.34-3.17-5.34-3.2-5,0h0Z" transform="translate(-433.79 -636.17)"/>
    <path class="cls-1" d="M543.32,643.34a306.4,306.4,0,0,0,11.54,75.25c0.88,3.09,5.7,1.78,4.82-1.33a300.77,300.77,0,0,1-11.36-73.93c-0.09-3.21-5.09-3.22-5,0h0Z" transform="translate(-433.79 -636.17)"/>
    <path class="cls-1" d="M452.64,647.71l7.08,33.72c1.18,5.6,9.8,4.21,9.82-1.33a176.55,176.55,0,0,0-4-38.09c-1.36-6.29-11-3.63-9.64,2.66a163.79,163.79,0,0,1,3.69,35.43l9.82-1.33-7.08-33.72c-1.32-6.29-11-3.63-9.64,2.66h0Z" transform="translate(-433.79 -636.17)"/>
    <path class="cls-1" d="M481.15,645.48c1.37,8.68,2.7,17.36,4.11,26,1.1,6.77,4.24,12.81,12.15,11.32,2.17-.41,3.62-2.75,3.67-4.82,0.16-6.69.21-13.38-1.08-20s-4.29-12.61-7.27-18.54c-2.89-5.75-11.52-.69-8.63,5,2.61,5.2,5.16,10.4,6.26,16.15s0.86,11.56.72,17.32l3.67-4.82c1.65-.31-3.45-27.18-4-30.36-1-6.34-10.64-3.65-9.64,2.66h0Z" transform="translate(-433.79 -636.17)"/>
    <path class="cls-1" d="M532.36,646.16c1.28,9.38,2.56,38.24,18.85,30.75,1.63-.75,2.37-2.67,2.48-4.32a74.7,74.7,0,0,0-5.43-33.11c-2.41-5.87-12.09-3.3-9.64,2.66a68,68,0,0,1,5.08,30.45l2.48-4.32c1-.47-1.65-9.61-2-11.3-0.86-4.47-1.57-9-2.19-13.48-0.86-6.35-10.5-3.64-9.64,2.66h0Z" transform="translate(-433.79 -636.17)"/>
  </g>
</svg>
