<svg id="圖層_1" data-name="圖層 1" xmlns="http://www.w3.org/2000/svg" viewBox="0 0 122.53 60.07">
  <defs>
    <style>
      .cls-1 {
        fill: #fff;
      }
    </style>
  </defs>
  <title>square</title>
  <path class="cls-1" d="M887.61,938.67c6.89,0.24,18.14,2.78,17.76-7.41-0.2-5.26-1.52-10.54-1.94-15.82a157.11,157.11,0,0,1-.39-17.79,76.38,76.38,0,0,1,.56-8.37c0.63-4.29,2.8-5.43,7.4-4.81,5.83,0.79,11.66,1.65,17.48,2.47,4.16,0.59,4.24,1.76,3.94,5.78-0.19,2.54-.43,5.08-0.66,7.62a172.72,172.72,0,0,0-1,19c0.15,7-.49,17.14,8.44,17.68,4,0.24,10.29,1,14.1-.38,3.24-1.19,3.6-4.17,3.63-7.21,0.1-12-.08-24.05-0.11-36.08,0-2.5-.73-5,1.52-6.3,1.7-1,7.52-.24,9.51-0.31l7.61-.25c1.19,0,3.51-.6,4.59.11,1.29,0.85.86,2.17,0.89,3.76,0.2,13.55-.89,27.27-0.12,40.8,0.2,3.47,1.25,5.91,4.92,6.67,6,1.25,13.47,0,19.61,0,3.22,0,3.22-5,0-5l-8.86.06c-2.1,0-6.86.93-8.86,0.06-2.81-1.22-1.8-5.23-1.8-7.63l0-10.68,0-16.51c0-4.11,1.24-10.13-.78-13.92-1.62-3-4.76-2.84-7.76-2.78-6.31.12-12.73,0.16-19,.62-9.28.68-6.51,12.57-6.49,19.1l0.06,17.55,0,7.8c0,0.47.31,3.27,0,3.9-1.1,2.32-3.3,1.6-5.3,1.61-2.17,0-6.59.74-8.51-.45-2.28-1.41-2-5.79-2.2-8.45a118.45,118.45,0,0,1,.44-18c0.44-5.35,1.35-10.82,1.33-16.2,0-4.21-2-5.88-6-6.54-5.19-.85-10.43-1.47-15.64-2.21-4.12-.58-9.55-2.32-13.32.25-2.79,1.9-3.67,5.39-4.07,8.54A120.6,120.6,0,0,0,898,907a160.43,160.43,0,0,0,1.41,17.47c0.49,3.59,2.67,8.61-2.35,9.5-2.84.5-6.58-.22-9.44-0.32-3.22-.11-3.21,4.89,0,5h0Z" transform="translate(-885.2 -879.05)"/>
</svg>
