<!--@author: Yu-Ning,Chang-->
<!--svg exported from Adobe Illustrator-->
<svg id="img_1" data-name="img_1" xmlns="http://www.w3.org/2000/svg" viewBox="0 0 129.25 122.72">
  <defs>
    <style>
      .cls-1 {
        fill: #fff;
      }
    </style>
  </defs>
  <title>guitar</title>
  <g>
    <path class="cls-1" d="M679.82,726.88c-7-7.68-9-17.56-8.08-27.62A33.72,33.72,0,0,1,675.47,686c3.93-7,11-9.31,18.79-9.27,13.81,0.07,28.25,6.79,35.45,18.89,4.07,6.85,5.49,15.15,5.31,23-0.19,8.16-3.52,14.18-11.7,16.29-14.63,3.78-32.18,3.14-43.51-8.07-2.29-2.26-5.83,1.27-3.54,3.54C688,742,705.42,743.64,720.92,740.58c7.59-1.5,14.41-4.31,17.38-12,3.06-8,2-18-.28-26.06-4.78-16.61-19.89-27.69-36.62-30.18-8-1.19-17.21-1-24,4-5.32,3.89-8.27,10.16-9.67,16.46-2.93,13.25-.77,27.37,8.56,37.67C678.44,732.81,682,729.26,679.82,726.88Z" transform="translate(-666.5 -619.22)"/>
    <path class="cls-1" d="M694,711.27c-4.34.61-5.1-4.18-3.6-6.73a7.69,7.69,0,0,1,5.1-3.45c4.37-.95,9.2.49,11.3,4.54,1.76,3.4,3.12,8.16-1.31,10.09-3.94,1.71-8.34-.64-11.83-2.36-2.88-1.42-5.41,2.89-2.52,4.32,6.49,3.2,16.45,6.52,21.25-1.34,3.6-5.91-.88-16-6.71-18.77-6.9-3.31-16.77-1.9-20.17,5.63a9.14,9.14,0,0,0,9.83,12.91c3.17-.45,1.82-5.27-1.33-4.82h0Z" transform="translate(-666.5 -619.22)"/>
    <path class="cls-1" d="M700.65,710c-1.18-.45-0.65-3.1.85-1.77,1.84,1.63-2,2.48-3,2.57s-5.63-.17-4.1-2.4c0.39-.56,3.44-1.14,3.84-0.54,0.58,0.86-2.34,1.49-2.84.88-1.17-1.44,3-2.63,3.86-2.47a2.62,2.62,0,0,1,1.91,3.84c-0.89,1.47-3.47,1.82-5,1.83-3.43,0-5.34-2.75-3.37-5.79,2.08-3.21,6.65-1.95,9,.24,1,1,2.37,2.83,2.07,4.41-0.39,2.06-3,1.75-4.66,1.82-3.46.14-6.74,0-9.59-2.19-2.57-1.94-5.06,2.4-2.52,4.32,3.36,2.54,7.53,3,11.63,2.89,3.47-.11,7.5-0.21,9.35-3.67,3.74-7-4.53-14.6-11.15-14.76-6.79-.16-12.49,7.34-8.86,13.68,3.46,6,15.42,5.33,18-1.2,3-7.53-6.09-13-12.24-9-2.7,1.76-4.83,5.5-3.14,8.67s6,3,8.93,1.88,5.11-4.2,3.61-7.37c-1.3-2.75-4.79-3.44-7.54-3.07-3.16.42-6.55,2.35-6.67,5.9s2.79,6.16,6,6.86c3.59,0.78,8.67,0,10.89-3.21s0.58-7.22-2.62-8.91c-7.55-4-11.66,8.44-4,11.37,3,1.15,4.31-3.68,1.33-4.82h0Z" transform="translate(-666.5 -619.22)"/>
    <path class="cls-1" d="M710,698.54l32.5-28.87,16.18-14.38,8.84-7.86c1.48-1.32,2.3-2.65,4.41-2.52,3.89,0.25-.29,4.09-1.72,5.44-10.79,10.23-22.15,19.92-33.21,29.86L720.7,694.88c-2.92,2.63-6.27,5.09-8.9,8l-1.48,1.33q2-.08.34-1.86c-0.2-1.49-1.42-3.29-2-4.64-1.27-2.95-5.58-.4-4.32,2.52,1.13,2.63,2,7.44,5.05,8.63,2.5,1,4.18-.91,5.94-2.44,7.5-6.57,14.84-13.33,22.26-20l23.74-21.33q5.19-4.67,10.39-9.33c2.59-2.34,5.83-4.89,6.58-8.53,0.88-4.21-2.17-9.2-6.85-8.49-3.51.53-6.45,4.29-8.92,6.48l-11.79,10.47L706.48,695c-2.41,2.14,1.14,5.67,3.54,3.54h0Z" transform="translate(-666.5 -619.22)"/>
    <path class="cls-1" d="M776,639.82c-0.49-.57-4.65-4.57-4.61-4.94s3.64-2.9,4-3.22l2.69-2.14q1.12-1.38,1.27,0c0.71,0.53,1.27,3,1.74,3.74a22.46,22.46,0,0,0,5.48,6.09c1.67,1.32,4.78,2.52,2.75,5.64-1.19,1.83-6.42,2.94-8,1.68-2.48-2-6,1.5-3.54,3.54,4.76,3.87,13.42,1.78,16.78-3.36,4.53-6.91-6.42-11.48-9.19-16.11-1.36-2.28-1.73-6.3-4.7-7.22s-5.43,1.86-7.5,3.51-7,4.11-7.08,7.37,4.4,6.71,6.31,8.92c2.1,2.44,5.62-1.11,3.54-3.54h0Z" transform="translate(-666.5 -619.22)"/>
    <path class="cls-1" d="M776.92,628.39l-4.34-7.93c-1.55-2.82-5.86-.3-4.32,2.52l4.34,7.93c1.55,2.82,5.86.3,4.32-2.52h0Z" transform="translate(-666.5 -619.22)"/>
    <path class="cls-1" d="M783.75,647.75l4.7,8.62c1.54,2.83,5.86.31,4.32-2.52l-4.7-8.62c-1.54-2.83-5.86-.31-4.32,2.52h0Z" transform="translate(-666.5 -619.22)"/>
  </g>
</svg>
