<!--@author: Yu-Ning,Chang-->
<!--svg exported from Adobe Illustrator-->
<svg id="img_1" data-name="img_1" xmlns="http://www.w3.org/2000/svg" viewBox="0 0 133.43 73.99">
  <defs>
    <style>
      .cls-1 {
        fill: #fff;
      }
    </style>
  </defs>
  <title>sin</title>
  <path class="cls-1" d="M443.61,907.14a114.35,114.35,0,0,1,4.12-19.46c0.77-2.52,1.43-6.52,3.26-8.51,4.67-5.06,9.3,1.3,11.67,4.93,6.27,9.6,8.31,21.27,10.64,32.29,1.11,5.24,2.24,10.49,3.84,15.61,1.23,3.92,2.57,8.58,6.72,10.31,8.51,3.56,15-6.67,17-13.35,3.23-10.67,1.49-22.08,4.21-32.83,1.18-4.65,3.11-9.39,6.58-12.83,2.89-2.87,5.94-4.78,9.48-1.62,2.23,2,3.67,6.64,5,9.38a133.36,133.36,0,0,1,11.49,36.43c1.08,6.57,1.81,19.63,11.65,18.39,4.65-.58,7.43-5,9.37-8.81A121.26,121.26,0,0,0,566,919.22a126.39,126.39,0,0,0,6-40.95c-0.05-3.21-5.05-3.22-5,0a122.43,122.43,0,0,1-5.25,37.92,114.74,114.74,0,0,1-7,17.56c-1.11,2.24-3.69,8.21-7.3,7.11-2.95-.89-3.62-5.66-4-8.21-2-12.19-4.42-23.91-9.09-35.43a140,140,0,0,0-7.1-15c-2.12-3.84-4.25-8.13-9.29-7.8-8.16.53-13.91,9.5-16.41,16.31-3.79,10.32-2.43,21.36-4.32,32-0.9,5.06-2.87,13.48-8.79,14.93-6.1,1.5-8-12.08-8.94-16.31-2.44-10.56-4-21.42-8.23-31.47-2.95-7-10.8-22-20.81-16.89-4.69,2.39-6.16,8.76-7.56,13.34a122.41,122.41,0,0,0-4.3,20.78c-0.4,3.19,4.61,3.16,5,0h0Z" transform="translate(-438.59 -871.98)"/>
</svg>
