<svg id="圖層_1" data-name="圖層 1" xmlns="http://www.w3.org/2000/svg" viewBox="0 0 111.52 61.99">
  <defs>
    <style>
      .cls-1 {
        fill: #fff;
      }
    </style>
  </defs>
  <title>triangle</title>
  <path class="cls-1" d="M676.89,920a197.12,197.12,0,0,1,11.55-32.3l-3.93.51c3.51,3.77,4.08,9,5.2,13.79a130.35,130.35,0,0,0,4.53,15.29A135.8,135.8,0,0,0,708,944.75a2.54,2.54,0,0,0,4.57-.6l21.92-55.35-4.57.6,25,49.32a2.52,2.52,0,0,0,4.32,0,264.44,264.44,0,0,0,24.07-50.35c1.08-3-3.75-4.35-4.82-1.33a258.24,258.24,0,0,1-23.56,49.15h4.32l-25-49.32c-1.07-2.11-3.85-1.23-4.57.6l-21.92,55.35,4.57-.6a129.87,129.87,0,0,1-15-31.3c-2.72-8.54-2.93-19.43-9.29-26.25a2.52,2.52,0,0,0-3.93.51,204.57,204.57,0,0,0-12.05,33.5c-0.82,3.11,4,4.44,4.82,1.33h0Z" transform="translate(-671.97 -883.96)"/>
</svg>
