<svg id="圖層_1" data-name="圖層 1" xmlns="http://www.w3.org/2000/svg" viewBox="0 0 134.93 75.24">
  <defs>
    <style>
      .cls-1 {
        fill: #fff;
      }
    </style>
  </defs>
  <title>wind</title>
  <g>
    <path class="cls-1" d="M896.31,662.45A8.12,8.12,0,0,0,886,660.34c-4.69,2.41-6.14,8.4-5.89,13.27,0.22,4.2,1.58,9,5,11.69a7.69,7.69,0,0,0,10.69-1,8.14,8.14,0,0,0,1.78-5c0.25-3-1-2.22,1.9-2.82,1.39-.29,4.42.92,5.82,1.21l23.29,4.83,23.29,4.83,11.65,2.42,5.82,1.21c2,0.41,5.35.44,7.05,1.5,2.72,1.69,3.19,7.07,4.34,9.86a52.05,52.05,0,0,0,3.27,6.65c2.62,4.45,6.65,11,12.29,11.78,12.35,1.61,13.87-16.53,15.06-24.69q1.56-10.66,2.52-21.4,0.5-5.68.83-11.37c0.18-3.2.75-6.9-.52-10-4.38-10.59-16.65.34-20.78,5-5.35,6-9.85,11.71-18.69,11.62-8.38-.09-17.22-2.75-25.43-4.27l-53.86-10c-3.15-.58-4.49,4.23-1.33,4.82,24.29,4.51,48.55,9.42,72.91,13.53,9.37,1.58,17.35.91,24.37-6,3-2.91,5.42-6.29,8.37-9.22,1.42-1.41,4.24-4.41,6.39-4.55a3.66,3.66,0,0,1,3.8,3.81c0,1.72-.14,3.5-0.24,5.22a359.19,359.19,0,0,1-4,37.06c-0.74,4.59-1.34,12.84-6.36,15-5.93,2.53-11.44-9.21-13.33-13.37-1.71-3.76-2-9.45-5-12.46-3.24-3.27-10-3.28-14.24-4.16L930,677.66l-21.35-4.43c-3.86-.8-9.35-3.06-13.26-1.27a4.9,4.9,0,0,0-2.78,3.07c-0.72,2.22.24,10.38-4.83,5.89-2.18-1.93-2.7-6.16-2.63-8.83,0.1-3.56,3.49-11.36,7.66-6.1,2,2.52,5.52-1,3.54-3.54h0Z" transform="translate(-880.11 -648.83)"/>
    <path class="cls-1" d="M904.92,679.12c-2.14,7.24-4.08,15.65-3.53,23.27,0.46,6.46,5.16,7.14,10.66,8.48,17.2,4.17,34.41,9.1,52,11.54a2.56,2.56,0,0,0,3.08-1.75A123.82,123.82,0,0,0,970,694.92c0-3.22-5-3.22-5,0a117.28,117.28,0,0,1-2.75,24.42l3.08-1.75c-13.75-1.91-27.2-5.54-40.68-8.81-5.16-1.25-17.05-1.89-18.28-7.63-0.62-2.92.44-7.29,0.9-10.17a84,84,0,0,1,2.46-10.53c0.92-3.09-3.91-4.41-4.82-1.33h0Z" transform="translate(-880.11 -648.83)"/>
    <path class="cls-1" d="M922.85,652.67l-1,8.21a2.51,2.51,0,0,0,2.5,2.5,2.56,2.56,0,0,0,2.5-2.5l1-8.21a2.51,2.51,0,0,0-2.5-2.5,2.56,2.56,0,0,0-2.5,2.5h0Z" transform="translate(-880.11 -648.83)"/>
    <path class="cls-1" d="M936.3,653.86a10.35,10.35,0,0,1-1.82,6.87c-1.83,2.65,2.5,5.16,4.32,2.52a14.79,14.79,0,0,0,2.5-9.39c-0.22-3.19-5.22-3.22-5,0h0Z" transform="translate(-880.11 -648.83)"/>
    <path class="cls-1" d="M949.59,655v9.38c0,3.22,5,3.22,5,0V655c0-3.22-5-3.22-5,0h0Z" transform="translate(-880.11 -648.83)"/>
    <path class="cls-1" d="M919.91,682c0,2.6-.17,30.28-0.82,30.18-3.15-.47-4.51,4.35-1.33,4.82,5,0.74,6.73-3.87,7-8.17,0.62-8.85.08-18,.11-26.83,0-3.22-5-3.22-5,0h0Z" transform="translate(-880.11 -648.83)"/>
    <path class="cls-1" d="M936.15,682l-2.4,36.42c-0.21,3.21,4.79,3.2,5,0l2.4-36.42c0.21-3.21-4.79-3.2-5,0h0Z" transform="translate(-880.11 -648.83)"/>
    <path class="cls-1" d="M947.32,687.91a76.83,76.83,0,0,1-3.26,33.1c-1,3.07,3.82,4.38,4.82,1.33a80.27,80.27,0,0,0,3.44-34.42c-0.37-3.16-5.37-3.2-5,0h0Z" transform="translate(-880.11 -648.83)"/>
  </g>
</svg>
